<svg width="229" height="187" viewBox="0 0 229 187" fill="none" xmlns="http://www.w3.org/2000/svg">
<path d="M377.645 333.715C353.86 368.307 318.174 392.934 277.393 402.901C236.613 412.868 193.591 407.477 156.53 387.756C119.47 368.035 90.9642 335.364 76.449 295.972C61.9338 256.581 62.4245 213.225 77.8275 174.172C93.2306 135.119 122.468 103.101 159.966 84.2236C197.463 65.3464 240.596 60.9305 281.141 71.8178C321.685 82.7052 356.804 108.134 379.801 143.256C402.798 178.378 412.064 220.735 405.832 262.25" stroke="#C7FAB6" stroke-width="11" stroke-linecap="round" stroke-linejoin="round"/>
<path d="M310.445 350.962C373.525 310.279 391.682 226.163 351 163.083C310.317 100.003 226.201 81.846 163.121 122.528C100.041 163.211 81.884 247.327 122.566 310.407C163.249 373.487 247.365 391.644 310.445 350.962Z" fill="#C7FAB6" stroke="#C7FAB6" stroke-width="35.0282" stroke-linecap="round" stroke-linejoin="round"/>
</svg>
