<svg width="207" height="800" viewBox="0 0 207 800" fill="none" xmlns="http://www.w3.org/2000/svg">
<path d="M-573.102 554.155C-610.967 463.492 -614.139 362.063 -582.013 269.211C-549.887 176.358 -484.71 98.578 -398.911 50.7015C-313.112 2.82511 -212.693 -11.798 -116.803 9.62061C-20.9126 31.0392 63.74 87.0011 121.013 166.835C178.286 246.669 204.172 344.79 193.736 442.487C183.3 540.184 137.271 630.623 64.4271 696.557C-8.41709 762.492 -102.981 799.31 -201.231 799.99C-299.482 800.67 -394.546 765.165 -468.296 700.245" stroke="#C7FAB6" stroke-width="21.9932" stroke-linecap="round" stroke-linejoin="round"/>
<path d="M-521.781 400.1C-521.781 575.775 -379.368 718.188 -203.693 718.188C-28.0182 718.188 114.395 575.775 114.395 400.1C114.395 224.425 -28.0182 82.0128 -203.693 82.0128C-379.368 82.0128 -521.781 224.425 -521.781 400.1Z" fill="#C7FAB6" stroke="#C7FAB6" stroke-width="81.981" stroke-linecap="round" stroke-linejoin="round"/>
</svg>
