<svg width="29" height="22" viewBox="0 0 29 22" fill="none" xmlns="http://www.w3.org/2000/svg">
<g clip-path="url(#clip0_1108_15257)">
<path d="M26.5893 0V4.4324H24.0041C21.8645 4.4324 20.7948 5.49617 20.7948 7.62375V10.4604H22.0428C23.7663 10.4604 25.1927 10.9924 26.3218 12.0561C27.5105 13.1199 28.1048 14.4496 28.1048 16.0453C28.1048 17.7591 27.5105 19.148 26.3218 20.2117C25.1927 21.2755 23.7663 21.8074 22.0428 21.8074C20.3194 21.8074 18.893 21.246 17.7638 20.1231C16.6346 19.0002 16.07 17.5819 16.07 15.868V7.62375C16.07 2.54124 18.6256 0 23.7366 0H26.5893ZM11.0778 0V4.4324H8.49258C6.35311 4.4324 5.28334 5.49617 5.28334 7.62375V10.4604H6.53141C8.25488 10.4604 9.6812 10.9924 10.8104 12.0561C11.999 13.1199 12.5933 14.4496 12.5933 16.0453C12.5933 17.7591 11.999 19.148 10.8104 20.2117C9.6812 21.2755 8.25488 21.8074 6.53141 21.8074C4.8079 21.8074 3.38156 21.246 2.25237 20.1231C1.12319 19.0002 0.558594 17.5819 0.558594 15.868V7.62375C0.558594 2.54124 3.11412 0 8.22515 0H11.0778Z" fill="#008C41"/>
</g>
<defs>
<clipPath id="clip0_1108_15257">
<rect width="27.5462" height="21.8074" fill="white" transform="translate(0.558594)"/>
</clipPath>
</defs>
</svg>
